<svg width="18" height="18" viewBox="0 0 18 18" fill="none" xmlns="http://www.w3.org/2000/svg">
<path fill-rule="evenodd" clip-rule="evenodd" d="M2.91292 8.24624C2.91292 5.30072 5.30074 2.91291 8.24626 2.91291C11.1918 2.91291 13.5796 5.30072 13.5796 8.24624C13.5796 9.68546 13.0095 10.9915 12.0829 11.951C12.0583 11.9695 12.0347 11.99 12.0123 12.0123C11.9899 12.0347 11.9695 12.0583 11.951 12.0829C10.9915 13.0095 9.68546 13.5796 8.24626 13.5796C5.30074 13.5796 2.91292 11.1918 2.91292 8.24624ZM12.4654 13.4082C11.3161 14.3487 9.84709 14.9129 8.24626 14.9129C4.56436 14.9129 1.57959 11.9281 1.57959 8.24624C1.57959 4.56434 4.56436 1.57957 8.24626 1.57957C11.9282 1.57957 14.9129 4.56434 14.9129 8.24624C14.9129 9.8471 14.3487 11.3162 13.4082 12.4654L16.2176 15.2748C16.478 15.5352 16.478 15.9573 16.2176 16.2177C15.9573 16.478 15.5352 16.478 15.2748 16.2177L12.4654 13.4082Z" fill="#2D3440"/>
</svg>
